<svg xmlns="http://www.w3.org/2000/svg" viewBox="0 0 32 32" width="32" height="32">
  <!-- Dark rounded background -->
  <rect width="32" height="32" rx="7" fill="#121212"/>
  <!-- Rise at Seven "R" letterform extracted and scaled to fit the 32x32 box -->
  <!-- Original path from the Rise at Seven wordmark SVG (the R glyph), scaled from ~13.3x20 to ~20x20 and centred -->
  <g transform="translate(6, 6) scale(1.53, 1.53)">
    <path
      d="M9.55945 12.1512C12.1519 11.2327 13.3395 9.09953 13.3395 6.39957C13.3395 4.67151 12.7728 2.88934 11.5046 1.67395C10.0998 0.297591 8.07419 0 6.18314 0H0V19.9826H2.91572V13.8069L13.3389 19.9826V16.8606L6.22575 12.5949L7.61496 12.5293C8.26222 12.5293 8.96359 12.3676 9.55809 12.1512H9.55945ZM4.91499 10.3156H2.91572V2.67359H5.99444C8.317 2.67359 10.4231 3.86192 10.4231 6.40024C10.4231 9.5865 7.50742 10.3156 4.91499 10.3156Z"
      fill="#b2f6e3"
    />
  </g>
</svg>